<?xml version="1.0" standalone="no"?>
<!DOCTYPE svg PUBLIC "-//W3C//DTD SVG 1.1//EN" "http://www.w3.org/Graphics/SVG/1.1/DTD/svg11.dtd" >
<svg xmlns="http://www.w3.org/2000/svg" xmlns:xlink="http://www.w3.org/1999/xlink" version="1.1">
<metadata>
Created by FontForge 20170924 at Fri Sep 27 18:47:23 2019
 By www-data
</metadata>
<defs>
<font id="icomoon" horiz-adv-x="1024" >
  <font-face 
    font-family="icomoon"
    font-weight="400"
    font-stretch="normal"
    units-per-em="1024"
    panose-1="0 0 0 0 0 0 0 0 0 0"
    ascent="960"
    descent="-64"
    bbox="-0.123077 -64.3077 1755 960.056"
    underline-thickness="0"
    underline-position="0"
    unicode-range="U+0001-E917"
  />
<missing-glyph 
 />
    <glyph glyph-name=".notdef" 
 />
    <glyph glyph-name=".null" horiz-adv-x="0" 
d="M0 0v0v0v0z" />
    <glyph glyph-name=".null" horiz-adv-x="0" 
d="M0 0v0v0v0z" />
    <glyph glyph-name="nonmarkingreturn" horiz-adv-x="341" 
 />
    <glyph glyph-name="uni0001" horiz-adv-x="0" 
d="M0 0v0v0v0z" />
    <glyph glyph-name="space" unicode=" " horiz-adv-x="512" 
d="M0 0v0v0v0z" />
    <glyph glyph-name="uniE900" unicode="&#xe900;" 
d="M576 512h384q27 0 45.5 -18.5t18.5 -45.5t-18.5 -45.5t-45.5 -18.5h-384v-384q0 -27 -18.5 -45.5t-45.5 -18.5t-45.5 18.5t-18.5 45.5v384h-384q-27 0 -45.5 18.5t-18.5 45.5t18.5 45.5t45.5 18.5h384v384q0 27 18.5 45.5t45.5 18.5t45.5 -18.5t18.5 -45.5v-384z" />
    <glyph glyph-name="uniE901" unicode="&#xe901;" horiz-adv-x="819" 
d="M68 960h683q28 0 48 -20t20 -48v-888q0 -28 -20 -48t-48 -20h-683q-28 0 -48 20t-20 48v888q0 28 20 48t48 20v0zM171 755q-15 0 -25 -10t-10 -24t10 -24t25 -10h477q15 0 25 10t10 24t-10 24t-25 10h-477v0zM171 550q-15 0 -25 -10t-10 -24t10 -24t25 -10h273
q14 0 24 10t10 24t-10 24t-24 10h-273v0zM171 346q-15 0 -25 -10t-10 -25q0 -14 10 -24t25 -10h273q14 0 24 10t10 24q0 15 -10 25t-24 10h-273v0z" />
    <glyph glyph-name="uniE902" unicode="&#xe902;" 
d="M592 466l395 -395l-98 -98l-395 395l-395 -395l-99 98l395 395l-395 395l99 99l395 -395l395 395l98 -99z" />
    <glyph glyph-name="uniE903" unicode="&#xe903;" horiz-adv-x="1097" 
d="M616 449l412 -412q12 -13 12 -30t-12 -29t-29 -12t-29 12l-413 412l-442 -442q-12 -12 -29 -12t-29 12q-13 12 -13 29.5t13 29.5l442 442l-441 440q-12 12 -12 29.5t12 29.5q13 12 30 12t29 -12l440 -440l441 440q12 12 29 12t29 -12t12 -29.5t-12 -29.5l-440 -440v0z
" />
    <glyph glyph-name="uniE904" unicode="&#xe904;" 
d="M678 201q0 -11 -9 -19.5t-20 -8.5q-12 0 -20.5 8t-8.5 20v405q0 11 8.5 20t20.5 9q11 0 20 -9t9 -20v-405zM514 201q0 -11 -8.5 -19.5t-20.5 -8.5q-11 0 -20 8.5t-9 19.5v405q0 11 9 20t20 9q12 0 20.5 -9t8.5 -20v-405v0zM350 201q0 -11 -8.5 -19.5t-19.5 -8.5
q-12 0 -20.5 8t-8.5 20v405q0 11 8.5 20t20.5 9q11 0 19.5 -9t8.5 -20v-405zM928 862h-273v34q0 42 -11 53t-53 11h-208q-42 0 -52.5 -11t-10.5 -53v-34h-278q-17 0 -29.5 -12.5t-12.5 -30.5q0 -17 12.5 -29.5t29.5 -12.5h75v-710q0 -71 30.5 -101t100.5 -30h478
q71 0 101 39.5t30 110.5v691h71q17 0 29.5 12.5t12.5 29.5q0 18 -12.5 30.5t-29.5 12.5v0z" />
    <glyph glyph-name="uniE905" unicode="&#xe905;" 
d="M0 832q0 53 37.5 90.5t90.5 37.5h768q53 0 90.5 -37.5t37.5 -90.5v-768q0 -53 -37.5 -90.5t-90.5 -37.5h-768q-53 0 -90.5 37.5t-37.5 90.5v768zM398 244l-143 159q-10 11 -25 12t-26 -9t-12 -25t9 -26l170 -188q7 -8 17 -11t20 0q5 2 9.5 4.5t8.5 6.5l429 477
q10 11 9 26t-12 25t-26 9t-25 -12l-403 -448v0z" />
    <glyph glyph-name="uniE906" unicode="&#xe906;" horiz-adv-x="819" 
d="M751 22h-683v503h683v-503zM205 686q0 42 16 80q16 37 44 65t65 44t80 16q42 0 79 -16t65 -44t44 -65q16 -38 16 -80v-92h-409v92v0zM751 594h-68v92q0 56 -22 106q-21 50 -58.5 87.5t-86.5 58.5q-50 22 -106 22q-57 0 -107 -22q-49 -21 -86 -58.5t-59 -87.5
q-21 -50 -21 -106v-92h-69q-28 0 -48 -20t-20 -49v-503q0 -28 20 -48t48 -20h683q28 0 48 20t20 48v503q0 29 -20 49t-48 20v0zM410 141q13 0 22 10.5t9 24.5v183q0 14 -9 24.5t-22 10.5t-22.5 -10.5t-9.5 -24.5v-183q0 -14 9.5 -24.5t22.5 -10.5z" />
    <glyph glyph-name="uniE907" unicode="&#xe907;" horiz-adv-x="731" 
d="M658 950q6 5 14 7.5t16 2.5q18 0 31 -13t13 -31v-936q0 -8 -2.5 -15t-7.5 -13q-11 -14 -29.5 -16t-32.5 9l-636 419q-19 15 -23.5 42t23.5 52z" />
    <glyph glyph-name="uniE908" unicode="&#xe908;" horiz-adv-x="878" 
d="M37 960q-16 0 -26.5 -10.5t-10.5 -26.5v-950q0 -16 10.5 -26.5t26.5 -10.5q15 0 25.5 10.5t10.5 26.5v950q0 16 -10.5 26.5t-25.5 10.5zM805 950l-635 -492q-28 -32 -23 -53t23 -41l636 -419q15 -11 33 -9t29 16q5 6 7.5 13t2.5 15v936q0 18 -13 31t-31 13q-8 0 -16 -2.5
t-13 -7.5v0z" />
    <glyph glyph-name="uniE909" unicode="&#xe909;" horiz-adv-x="945" 
d="M932 472v0q13 -7 13.5 -19.5t-9.5 -19.5q-3 0 -3.5 -1.5l-0.5 -1.5l-207 -168q-7 -4 -13.5 -6.5t-15.5 -2.5q-10 0 -16.5 2.5t-12.5 6.5q-13 10 -13 23.5t13 22.5l137 109h-399q-19 0 -30 9t-11 23q0 15 11 24t30 9h399l-137 109q-13 9 -13 22.5t13 23.5q12 9 28.5 9
t29.5 -9l207 -165v0zM834 174q17 0 27.5 -11t10.5 -29v-78q0 -51 -32.5 -84.5t-81.5 -33.5h-644q-49 0 -81.5 33.5t-32.5 84.5v786q0 50 32.5 84t81.5 34h644q49 0 81.5 -34t32.5 -84v-79q0 -17 -10.5 -28t-27.5 -11t-27.5 11t-10.5 28v79q0 18 -10.5 28.5t-27.5 10.5h-644
q-17 0 -27.5 -10.5t-10.5 -28.5v-786q0 -18 10.5 -29t27.5 -11h644q17 0 27.5 11t10.5 29v78q0 18 10.5 29t27.5 11z" />
    <glyph glyph-name="uniE90A" unicode="&#xe90a;" horiz-adv-x="805" 
d="M110 950q-6 5 -14 7.5t-16 2.5q-18 0 -31 -13t-13 -31v-936q0 -8 2.5 -15t7.5 -13q11 -14 29.5 -16t32.5 9l635 419q20 16 25 42.5t-25 51.5l-633 492v0z" />
    <glyph glyph-name="uniE90B" unicode="&#xe90b;" horiz-adv-x="951" 
d="M878 960q15 0 25.5 -10.5t10.5 -26.5v-950q0 -16 -10.5 -26.5t-25.5 -10.5q-16 0 -26.5 10.5t-10.5 26.5v950q0 16 10.5 26.5t26.5 10.5zM110 950l634 -492q28 -32 23.5 -53t-23.5 -41l-636 -419q-14 -11 -32.5 -9t-29.5 16q-5 6 -7.5 13t-2.5 15v936q0 18 13 31t31 13
q8 0 16 -2.5t14 -7.5v0z" />
    <glyph glyph-name="uniE90C" unicode="&#xe90c;" horiz-adv-x="887" 
d="M804 215q-5 5 -11 9.5t-12 8.5q-42 31 -81 55t-79.5 40t-83.5 25q-44 8 -94 8t-93 -8q-44 -8 -83.5 -24t-78.5 -40q-39 -23 -80 -53q-8 -5 -15.5 -11t-14.5 -12q-25 -23 -45 -55t-33 -70v-152h888v145q-14 41 -35 75.5t-49 58.5v0v0zM171 685q0 -74 36 -138t98 -101
q62 -36 133 -36t133 36q62 37 98 101t36 138t-36 137.5t-98 100.5t-133 37t-133 -37t-98 -100.5t-36 -137.5v0z" />
    <glyph glyph-name="uniE90D" unicode="&#xe90d;" horiz-adv-x="951" 
d="M73 911h805q30 0 51.5 -21.5t21.5 -51.5v-805q0 -30 -21.5 -51.5t-51.5 -21.5h-805q-30 0 -51.5 21.5t-21.5 51.5v805q0 30 21.5 51.5t51.5 21.5v0zM234 479q-18 0 -31 -12.5t-13 -31.5q0 -18 13 -30.5t31 -12.5h483q18 0 31 12.5t13 30.5q0 19 -13 31.5t-31 12.5h-483v0
z" />
    <glyph glyph-name="uniE90E" unicode="&#xe90e;" horiz-adv-x="1075" 
d="M1025 837v-778q0 -51 -35.5 -87t-86.5 -36h-779q-51 0 -87 36t-36 87v778q0 51 36 87t87 36h779q51 0 86.5 -36t35.5 -87zM820 264q0 76 -24 143t-65.5 117.5t-97.5 78.5q-56 29 -120 29v61q0 18 -7.5 33t-20.5 22q-5 4 -11 5.5t-12 1.5q-8 0 -16 -3t-15 -9l-205 -185
q-9 -9 -14.5 -21.5t-5.5 -27.5t5.5 -28t14.5 -21l205 -185q7 -5 15 -8.5t16 -3.5q6 0 12 2t11 5q13 8 20.5 23t7.5 32v61q50 0 96 -18q45 -18 83 -50.5t66 -77.5q29 -45 44 -99q9 29 13.5 60t4.5 63v0z" />
    <glyph glyph-name="uniE90F" unicode="&#xe90f;" 
d="M744 264l270 -270l-48 -48l-270 270q-55 -47 -125 -74t-149 -27q-87 0 -164 33q-77 34 -134.5 91t-90.5 134t-33 165q0 87 33 164t90.5 134.5t134.5 90.5t164 33q88 0 165 -33t134 -90.5t91 -134.5q33 -77 33 -164q0 -79 -27 -149t-74 -125v0zM422 183q74 0 138 28
q65 28 113 76t76 113q28 64 28 138q0 73 -28 137q-28 65 -76 113t-113 76q-64 28 -138 28q-73 0 -137 -28q-65 -28 -113 -76t-76 -113q-28 -64 -28 -137q0 -74 28 -138q28 -65 76 -113t113 -76q64 -28 137 -28z" />
    <glyph glyph-name="uniE910" unicode="&#xe910;" horiz-adv-x="904" 
d="M790 265q27 -24 48 -58t34 -74l1 -9v-158h-843v165l2 9q12 37 31.5 68.5t45.5 54.5q7 6 14.5 12t14.5 10q85 62 155.5 89.5t157.5 27.5t158 -28t157 -90q6 -4 12 -9l12 -10v0zM750 220q-5 4 -9.5 7.5t-9.5 6.5q-79 58 -141.5 82.5t-138.5 24.5t-138 -24t-141 -82
q-6 -4 -11.5 -8t-11.5 -9q-18 -17 -33 -40.5t-26 -51.5v-100h723v93q-10 32 -26.5 57.5t-36.5 43.5v0zM314 893q61 37 132.5 37t133.5 -37q61 -37 96.5 -100t35.5 -136t-35.5 -136.5t-96.5 -99.5q-62 -37 -133.5 -37t-132.5 37q-62 36 -97.5 99.5t-35.5 136.5t35.5 136
t97.5 100zM344 472q48 -28 102.5 -28t102.5 28q48 29 75.5 78.5t27.5 106.5t-27.5 106.5t-75.5 77.5q-48 29 -102.5 29t-102.5 -29q-47 -28 -75 -77.5t-28 -106.5t28 -106.5t75 -78.5z" />
    <glyph glyph-name="uniE911" unicode="&#xe911;" horiz-adv-x="1755" 
d="M878 712l702 -702q30 -30 72.5 -30t72.5 30t30 72.5t-30 72.5l-775 775q-30 30 -72.5 30t-72.5 -30l-775 -775q-30 -30 -30 -72.5t30 -72.5t72.5 -30t72.5 30l703 702v0z" />
    <glyph glyph-name="uniE912" unicode="&#xe912;" horiz-adv-x="1755" 
d="M878 228l702 702q30 30 72.5 30t72.5 -30t30 -72.5t-30 -72.5l-775 -775q-30 -30 -72.5 -30t-72.5 30l-775 775q-30 30 -30 72.5t30 72.5t72.5 30t72.5 -30l703 -702v0z" />
    <glyph glyph-name="uniE913" unicode="&#xe913;" horiz-adv-x="1365" 
d="M540 142l717 797q18 20 44 21t46 -16q20 -18 21.5 -44.5t-16.5 -46.5l-763 -848q-7 -7 -15 -12t-17 -7q-17 -5 -35 0t-31 19l-377 419q-18 20 -16.5 46.5t20.5 44.5q20 17 46.5 16t44.5 -21l331 -368v0z" />
    <glyph glyph-name="uniE914" unicode="&#xe914;" 
d="M512 335v0l-259 -398h518z" />
    <glyph glyph-name="uniE915" unicode="&#xe915;" 
d="M512 557l259 398h-518l259 -398v0z" />
    <glyph glyph-name="uniE916" unicode="&#xe916;" 
d="M512 751q68 0 132 -20.5t113 -54t91.5 -73.5t71.5 -80t50.5 -73.5t31.5 -53.5l10 -21l-6 -12q-4 -9 -18.5 -34.5t-31 -50.5t-43.5 -58.5t-55.5 -63t-68 -59.5t-80.5 -50.5t-92.5 -33.5t-104.5 -13q-69 0 -133 20.5t-113 54t-91.5 73t-71.5 79.5t-50.5 72.5t-31.5 53.5
l-10 20l6 14q4 8 18.5 34t31 51t43.5 59t55.5 63t68 58.5t80.5 50.5t92.5 34.5t105.5 13.5zM512 668q-46 0 -90 -12.5t-79.5 -31.5t-69 -46t-58 -53t-48 -56.5t-37 -52t-25.5 -43.5q12 -20 25.5 -41.5t37 -51.5t48 -56t58 -52.5t69 -45t79.5 -31t89.5 -12.5t89.5 12.5
t79.5 31.5t69 45.5t58 52.5t48 56t37 51.5t25.5 42.5q-12 22 -25.5 43.5t-37 51.5t-48 55.5t-58 52.5t-69 46t-79.5 31.5t-89 12.5zM512 543q69 0 118 -49t49 -118.5t-49 -118.5t-118.5 -49t-118.5 49t-49 118.5t49 118.5t119 49zM512 458q-35 0 -59.5 -24t-24.5 -58.5
t24.5 -59t59 -24.5t59 24.5t24.5 59t-24.5 58.5t-58.5 24z" />
    <glyph glyph-name="uniE917" unicode="&#xe917;" 
d="M783 339q63 51 100.5 120t48.5 149q1 12 -4 23.5t-14.5 19t-22.5 9t-24 -3t-19 -14.5t-9 -23q-21 -125 -111 -203t-215 -80q-126 2 -216 80t-111 203q-2 19 -17 30.5t-35 9.5t-31.5 -17t-9.5 -34q10 -80 48 -149t101 -120l-107 -108q-12 -15 -11.5 -32.5t13.5 -31
t30.5 -14t32.5 11.5l121 121q69 -34 145 -43v-166q1 -20 14 -33t32.5 -13t32.5 13t14 33v166q76 9 145 43l121 -121q15 -12 32.5 -11.5t30.5 14t14 31t-12 32.5z" />
  </font>
</defs>
</svg>
